<svg xmlns="http://www.w3.org/2000/svg" width="100%" height="100%" viewBox="0 0 800 803"><circle style="position: absolute;" fill="none" stroke="#ffffff" stroke-width="4" cx="400" cy="545" r="129.904" /><circle style="position: absolute;" fill="none" stroke="#ffffff" stroke-width="4" cx="400" cy="646" r="24.856" /><circle style="position: absolute;" fill="none" stroke="#ffffff" stroke-width="4" cx="416" cy="633" r="1" /><circle style="position: absolute;" fill="none" stroke="#ffffff" stroke-width="4" cx="412" cy="629" r="1" /><circle style="position: absolute;" fill="none" stroke="#ffffff" stroke-width="4" cx="400" cy="671" r="8.28533" /><path fill="none" stroke="#ffffff" stroke-width="4" d="M 483.814 643.489 A 24.856 24.856 0 0 1 514.578 604.912" /><circle style="position: absolute;" fill="none" stroke="#ffffff" stroke-width="4" cx="502" cy="626" r="22.856" /><circle style="position: absolute;" fill="none" stroke="#ffffff" stroke-width="4" cx="521" cy="642" r="8.28533" /><circle style="position: absolute;" fill="none" stroke="#ffffff" stroke-width="4" cx="499" cy="523" r="24.856" /><circle style="position: absolute;" fill="none" stroke="#ffffff" stroke-width="4" cx="480" cy="512" r="1" /><circle style="position: absolute;" fill="none" stroke="#ffffff" stroke-width="4" cx="484" cy="507" r="1" /><circle style="position: absolute;" fill="none" stroke="#ffffff" stroke-width="4" cx="478" cy="518" r="1" /><circle style="position: absolute;" fill="none" stroke="#ffffff" stroke-width="4" cx="474" cy="528" r="8.28533" /><circle style="position: absolute;" fill="none" stroke="#ffffff" stroke-width="4" cx="446" cy="450" r="24.856" /><path fill="none" stroke="#ffffff" stroke-width="4" d="M 452.311 426.524 A 24.856 24.856 0 0 1 460.089 430.27" /><line stroke="#ffffff" stroke-width="4" x1="422" y1="459" x2="415" y2="462" /><circle style="position: absolute;" fill="none" stroke="#ffffff" stroke-width="4" cx="435" cy="473" r="8.28533" /><circle style="position: absolute;" fill="none" stroke="#ffffff" stroke-width="4" cx="356" cy="454" r="24.856" /><line stroke="#ffffff" stroke-width="4" x1="345" y1="476" x2="342" y2="484" /><line stroke="#ffffff" stroke-width="4" x1="352" y1="479" x2="351" y2="487" /><circle style="position: absolute;" fill="none" stroke="#ffffff" stroke-width="4" cx="367" cy="476" r="8.28533" /><circle style="position: absolute;" fill="none" stroke="#ffffff" stroke-width="4" cx="301" cy="523" r="24.856" /><circle style="position: absolute;" fill="none" stroke="#ffffff" stroke-width="4" cx="313" cy="540" r="1" /><circle style="position: absolute;" fill="none" stroke="#ffffff" stroke-width="4" cx="308" cy="543" r="1" /><circle style="position: absolute;" fill="none" stroke="#ffffff" stroke-width="4" cx="318" cy="536" r="1" /><circle style="position: absolute;" fill="none" stroke="#ffffff" stroke-width="4" cx="301" cy="523" r="8.28533" /><line stroke="#ffffff" stroke-width="4" x1="310" y1="524" x2="317" y2="526" /><path fill="none" stroke="#ffffff" stroke-width="4" d="M 285.425 604.913 A 24.856 24.856 0 0 1 316.189 643.49" /><circle style="position: absolute;" fill="none" stroke="#ffffff" stroke-width="4" cx="298" cy="626" r="22.856" /><line stroke="#ffffff" stroke-width="4" x1="323" y1="628" x2="331" y2="629" /><line stroke="#ffffff" stroke-width="4" x1="322" y1="635" x2="329" y2="638" /><line stroke="#ffffff" stroke-width="4" x1="323" y1="621" x2="330" y2="619" /><circle style="position: absolute;" fill="none" stroke="#ffffff" stroke-width="4" cx="400" cy="205" r="129.904" /><circle style="position: absolute;" fill="none" stroke="#ffffff" stroke-width="4" cx="400" cy="335" r="18.75" /><circle style="position: absolute;" fill="none" stroke="#ffffff" stroke-width="4" cx="400" cy="135" r="56.2499" /><line stroke="#ffffff" stroke-width="4" x1="356" y1="170" x2="350" y2="175" /><line stroke="#ffffff" stroke-width="4" x1="368" y1="182" x2="364" y2="188" /><circle style="position: absolute;" fill="none" stroke="#ffffff" stroke-width="4" cx="400" cy="135" r="18.75" /><line stroke="#ffffff" stroke-width="4" x1="400" y1="154" x2="400" y2="162" /><circle style="position: absolute;" fill="none" stroke="#ffffff" stroke-width="2" cx="400" cy="375" r="360" /><circle style="position: absolute;" fill="none" stroke="#ffffff" stroke-width="4" cx="400" cy="375" r="364" /></svg>