<svg xmlns="http://www.w3.org/2000/svg" version="1.1" width="1368" height="793"><g style="transform: translate(300px, 400px) rotate(90deg);"><circle cx="0" cy="0" r="140" fill="none" stroke="#000" opacity="0.02" stroke-width="4" stroke-dasharray="0"/><circle cx="190" cy="0" r="6" stroke="#430" stroke-width="2" fill="none"/><circle cx="127.6892768765077" cy="14.051742733536024" r="3.5" fill="black"/><circle cx="118.57259242335633" cy="19.972186842198223" r="3.5" fill="black"/><circle cx="107.71709003430948" cy="20.54109961540992" r="3.5" fill="black"/><circle cx="48.8246851112417" cy="-150.26692957463425" r="6" stroke="#430" stroke-width="2" fill="none"/><g/><line x1="16.37790070187222" y1="-50.40599536364313" x2="20.086104634371587" y2="-61.81867355918497" stroke="#430" stroke-width="2" fill="none"/><circle cx="-69.99999999999997" cy="-50.8579769603753" r="10.8" stroke="#430" stroke-width="2" fill="none"/><circle cx="-75.28328453103752" cy="-34.91517976092328" r="3.5" fill="black"/><circle cx="-84.31163967825943" cy="-25.807691566773727" r="3.5" fill="black"/><circle cx="-94.09940910653782" cy="-17.52173311347451" r="3.5" fill="black"/><line x1="-95.99049452462461" y1="24.95266584984354" x2="-88.43864983202656" y2="15.6269143123599" stroke="#430" stroke-width="2" fill="none"/><line x1="-70.83297005910921" y1="51.463165132873215" x2="-61.12476612660984" y2="44.409742105363534" stroke="#430" stroke-width="2" fill="none"/><line x1="-53.39408956199361" y1="83.58158751747742" x2="-42.191124444027196" y2="79.28117212293381" stroke="#430" stroke-width="2" fill="none"/><line x1="-5.931298651135123" y1="99.00318312259957" x2="-12.466967071315437" y2="88.93913630725449" stroke="#430" stroke-width="2" fill="none"/><line x1="27.055787038476048" y1="83.26915035363743" x2="23.347583105976675" y2="71.85647215809558" stroke="#430" stroke-width="2" fill="none"/><line x1="62.991132376956536" y1="76.6089277693186" x2="62.36310090204121" y2="64.62537335226372" stroke="#430" stroke-width="2" fill="none"/><path d="M139.56842672263792,10.984273401898292A30,30 0 1,1 139.56842672263792,-10.984273401898292A140,140 0 0,0 43.26237921249265,-133.14791228132148M59.35661446562001,-90.35036904803958A30,30 0 0,0 -0.6433855343799912,-90.35036904803958A30,30 0 0,0 59.35661446562001,-90.35036904803958M43.26237921249265,-133.14791228132148A140,140 0 0,0 -44.09811275174267,-132.87346029864125A140,140 0 0,1 -139.9972365198592,-0.8796401551782778A140,140 0 0,0 -139.9972365198592,0.8796401551782435A140,140 0 0,1 -44.09811275174265,132.87346029864125A140,140 0 0,0 -42.42493774858843,133.41710781241062A140,140 0 0,1 112.74310399955708,82.99995482254828A140,140 0 0,0 139.56842672263792,10.984273401898292" stroke="#430" stroke-width="2" fill="none"/></g></svg>