<svg xmlns="http://www.w3.org/2000/svg" width="100%" height="100%" viewBox="0 0 800 803"><circle style="position: absolute;" fill="none" stroke="#ffffff" stroke-width="2" cx="400" cy="545" r="129.904" /><circle style="position: absolute;" fill="none" stroke="#ffffff" stroke-width="2" cx="400" cy="619" r="56.2499" /><path fill="none" stroke="#ffffff" stroke-width="4" d="M 409.769 674.145 A 56.2499 56.2499 0 0 1 390.234 674.145" /><circle style="position: absolute;" fill="none" stroke="#ffffff" stroke-width="2" cx="436" cy="581" r="1" /><circle style="position: absolute;" fill="none" stroke="#ffffff" stroke-width="2" cx="445" cy="593" r="1" /><circle style="position: absolute;" fill="none" stroke="#ffffff" stroke-width="2" cx="423" cy="572" r="1" /><circle style="position: absolute;" fill="none" stroke="#ffffff" stroke-width="2" cx="400" cy="675" r="18.75" /><path fill="none" stroke="#ffffff" stroke-width="2" d="M 455.831 422.048 A 56.2499 56.2499 0 0 1 344.17 422.048" /><circle style="position: absolute;" fill="none" stroke="#ffffff" stroke-width="2" cx="400" cy="415" r="54.2499" /><line stroke="#ffffff" stroke-width="2" x1="362" y1="456" x2="356" y2="462" /><circle style="position: absolute;" fill="none" stroke="#ffffff" stroke-width="2" cx="400" cy="415" r="18.75" /><circle style="position: absolute;" fill="none" stroke="#ffffff" stroke-width="2" cx="400" cy="205" r="129.904" /><path fill="none" stroke="#ffffff" stroke-width="2" d="M 344.17 327.952 A 56.2499 56.2499 0 0 1 455.831 327.952" /><circle style="position: absolute;" fill="none" stroke="#ffffff" stroke-width="2" cx="400" cy="335" r="54.2499" /><circle style="position: absolute;" fill="none" stroke="#ffffff" stroke-width="2" cx="436" cy="297" r="1" /><circle style="position: absolute;" fill="none" stroke="#ffffff" stroke-width="2" cx="445" cy="309" r="1" /><circle style="position: absolute;" fill="none" stroke="#ffffff" stroke-width="2" cx="423" cy="288" r="1" /><circle style="position: absolute;" fill="none" stroke="#ffffff" stroke-width="2" cx="400" cy="279" r="18.75" /><path fill="none" stroke="#ffffff" stroke-width="2" d="M 459.8 82.3426 A 60.2499 60.2499 0 0 1 340.198 82.3426" /><circle style="position: absolute;" fill="none" stroke="#ffffff" stroke-width="2" cx="400" cy="75" r="58.2499" /><line stroke="#ffffff" stroke-width="2" x1="359" y1="119" x2="353" y2="125" /><line stroke="#ffffff" stroke-width="2" x1="348" y1="105" x2="341" y2="109" /><line stroke="#ffffff" stroke-width="2" x1="374" y1="129" x2="370" y2="136" /><path fill="none" stroke="#ffffff" stroke-width="2" d="M 455.829 81.8551 A 56.2499 56.2499 0 0 1 344.168 81.8551" /><circle style="position: absolute;" fill="none" stroke="#ffffff" stroke-width="2" cx="400" cy="75" r="54.2499" /><circle style="position: absolute;" fill="none" stroke="#ffffff" stroke-width="2" cx="400" cy="375" r="360" /><circle style="position: absolute;" fill="none" stroke="#ffffff" stroke-width="2" cx="400" cy="375" r="364" /></svg>