<svg xmlns="http://www.w3.org/2000/svg" style="left: 0px; top: 0px; position: absolute;"><defs /><circle style="position: absolute;" fill="none" stroke="#144eee" stroke-width="2" cx="400" cy="525" r="150" /><circle style="position: absolute;" fill="none" stroke="#144eee" stroke-width="2" cx="400" cy="642" r="32.5413" /><path fill="none" stroke="#eeeeee" stroke-width="4" d="M 405.652 674.506 A 32.5413 32.5413 0 0 1 394.351 674.506" /><line stroke="#144eee" stroke-width="2" x1="422" y1="619" x2="428" y2="613" /><path fill="none" stroke="#144eee" stroke-width="2" d="M 510.321 625.988 A 32.5413 32.5413 0 0 1 542.62 570.045" /><circle style="position: absolute;" fill="#eeeeee" stroke="#eeeeee" stroke-width="2" cx="530" cy="600" r="30.5413" /><circle style="position: absolute;" fill="none" stroke="#144eee" stroke-width="2" cx="522" cy="573" r="1" /><circle style="position: absolute;" fill="none" stroke="#144eee" stroke-width="2" cx="530" cy="571" r="1" /><circle style="position: absolute;" fill="none" stroke="#144eee" stroke-width="2" cx="514" cy="576" r="1" /><circle style="position: absolute;" fill="none" stroke="#144eee" stroke-width="2" cx="558" cy="616" r="10.8471" /><circle style="position: absolute;" fill="none" stroke="#144eee" stroke-width="2" cx="498" cy="468" r="32.5413" /><line stroke="#144eee" stroke-width="2" x1="468" y1="456" x2="461" y2="453" /><line stroke="#144eee" stroke-width="2" x1="466" y1="466" x2="458" y2="465" /><circle style="position: absolute;" fill="none" stroke="#144eee" stroke-width="2" cx="400" cy="408" r="32.5413" /><path fill="none" stroke="#eeeeee" stroke-width="4" d="M 394.35 375.494 A 32.5413 32.5413 0 0 1 405.651 375.494" /><line stroke="#144eee" stroke-width="2" x1="375" y1="428" x2="368" y2="433" /><line stroke="#144eee" stroke-width="2" x1="382" y1="434" x2="377" y2="441" /><circle style="position: absolute;" fill="none" stroke="#144eee" stroke-width="2" cx="270" cy="450" r="32.5413" /><line stroke="#144eee" stroke-width="2" x1="280" y1="481" x2="282" y2="489" /><circle style="position: absolute;" fill="none" stroke="#144eee" stroke-width="2" cx="302" cy="582" r="32.5413" /><circle style="position: absolute;" fill="none" stroke="#144eee" stroke-width="2" cx="330" cy="588" r="1" /><circle style="position: absolute;" fill="none" stroke="#144eee" stroke-width="2" cx="326" cy="596" r="1" /><circle style="position: absolute;" fill="none" stroke="#144eee" stroke-width="2" cx="330" cy="580" r="1" /><circle style="position: absolute;" fill="none" stroke="#144eee" stroke-width="2" cx="400" cy="375" r="360" /><circle style="position: absolute;" fill="none" stroke="#144eee" stroke-width="2" cx="400" cy="375" r="364" /></svg>