<svg xmlns="http://www.w3.org/2000/svg"  width="100%" height="100%" viewBox="0 0 800 803"><circle style="position: absolute;" fill="none" stroke="#ffffff" stroke-width="2" cx="400" cy="600" r="74.9999" /><circle style="position: absolute;" fill="none" stroke="#ffffff" stroke-width="2" cx="400" cy="644" r="26.5165" /><line stroke="#ffffff" stroke-width="2" x1="421" y1="628" x2="427" y2="623" /><line stroke="#ffffff" stroke-width="2" x1="415" y1="623" x2="419" y2="616" /><circle style="position: absolute;" fill="none" stroke="#ffffff" stroke-width="2" cx="400" cy="671" r="8.83882" /><circle style="position: absolute;" fill="none" stroke="#ffffff" stroke-width="2" cx="442" cy="576" r="8.83882" /><line stroke="#ffffff" stroke-width="2" x1="450" y1="571" x2="457" y2="567" /><circle style="position: absolute;" fill="none" stroke="#ffffff" stroke-width="2" cx="361" cy="578" r="26.5165" /><circle style="position: absolute;" fill="none" stroke="#ffffff" stroke-width="2" cx="368" cy="599" r="1" /><circle style="position: absolute;" fill="none" stroke="#ffffff" stroke-width="2" cx="361" cy="600" r="1" /><circle style="position: absolute;" fill="none" stroke="#ffffff" stroke-width="2" cx="374" cy="596" r="1" /><circle style="position: absolute;" fill="none" stroke="#ffffff" stroke-width="2" cx="614" cy="445" r="74.9999" /><circle style="position: absolute;" fill="none" stroke="#ffffff" stroke-width="2" cx="614" cy="493" r="22.0419" /><line stroke="#ffffff" stroke-width="2" x1="629" y1="477" x2="634" y2="472" /><line stroke="#ffffff" stroke-width="2" x1="633" y1="483" x2="640" y2="479" /><line stroke="#ffffff" stroke-width="2" x1="624" y1="474" x2="627" y2="466" /><circle style="position: absolute;" fill="none" stroke="#ffffff" stroke-width="2" cx="663" cy="445" r="22.0419" /><circle style="position: absolute;" fill="none" stroke="#ffffff" stroke-width="2" cx="652" cy="430" r="1" /><circle style="position: absolute;" fill="none" stroke="#ffffff" stroke-width="2" cx="648" cy="434" r="1" /><circle style="position: absolute;" fill="none" stroke="#ffffff" stroke-width="2" cx="614" cy="392" r="22.0419" /><path fill="none" stroke="#eeeeee" stroke-width="4" d="M 610.16 369.863 A 22.0419 22.0419 0 0 1 617.815 369.863" /><line stroke="#ffffff" stroke-width="2" x1="599" y1="408" x2="594" y2="414" /><circle style="position: absolute;" fill="none" stroke="#ffffff" stroke-width="2" cx="614" cy="370" r="7.3473" /><circle style="position: absolute;" fill="none" stroke="#ffffff" stroke-width="2" cx="565" cy="445" r="22.0419" /><circle style="position: absolute;" fill="none" stroke="#ffffff" stroke-width="2" cx="569" cy="445" r="26.0419" /><line stroke="#ffffff" stroke-width="2" x1="588" y1="462" x2="594" y2="468" /><circle style="position: absolute;" fill="none" stroke="#ffffff" stroke-width="2" cx="532" cy="193" r="74.9999" /><circle style="position: absolute;" fill="none" stroke="#ffffff" stroke-width="2" cx="532" cy="235" r="10.8253" /><line stroke="#ffffff" stroke-width="2" x1="532" y1="225" x2="532" y2="217" /><path fill="none" stroke="#ffffff" stroke-width="2" d="M 564.484 121.928 A 32.4759 32.4759 0 0 1 500.017 121.928" /><circle style="position: absolute;" fill="#eeeeee" stroke="#eeeeee" stroke-width="2" cx="532" cy="118" r="30.4759" /><line stroke="#ffffff" stroke-width="2" x1="510" y1="142" x2="505" y2="148" /><line stroke="#ffffff" stroke-width="2" x1="504" y1="134" x2="497" y2="138" /><line stroke="#ffffff" stroke-width="2" x1="518" y1="147" x2="515" y2="154" /><circle style="position: absolute;" fill="none" stroke="#ffffff" stroke-width="2" cx="268" cy="193" r="74.9999" /><circle style="position: absolute;" fill="none" stroke="#ffffff" stroke-width="2" cx="268" cy="231" r="32.4759" /><line stroke="#ffffff" stroke-width="2" x1="290" y1="208" x2="295" y2="202" /><line stroke="#ffffff" stroke-width="2" x1="296" y1="215" x2="303" y2="211" /><line stroke="#ffffff" stroke-width="2" x1="282" y1="202" x2="285" y2="195" /><circle style="position: absolute;" fill="none" stroke="#ffffff" stroke-width="2" cx="268" cy="118" r="32.4759" /><circle style="position: absolute;" fill="none" stroke="#ffffff" stroke-width="2" cx="245" cy="136" r="1" /><circle style="position: absolute;" fill="none" stroke="#ffffff" stroke-width="2" cx="252" cy="141" r="1" /><circle style="position: absolute;" fill="none" stroke="#ffffff" stroke-width="2" cx="186" cy="445" r="74.9999" /><circle style="position: absolute;" fill="none" stroke="#ffffff" stroke-width="2" cx="186" cy="497" r="22.0419" /><path fill="none" stroke="#eeeeee" stroke-width="4" d="M 189.84 519.194 A 22.0419 22.0419 0 0 1 182.185 519.194" /><circle style="position: absolute;" fill="none" stroke="#ffffff" stroke-width="2" cx="198" cy="484" r="1" /><circle style="position: absolute;" fill="none" stroke="#ffffff" stroke-width="2" cx="202" cy="489" r="1" /><circle style="position: absolute;" fill="none" stroke="#ffffff" stroke-width="2" cx="194" cy="481" r="1" /><circle style="position: absolute;" fill="none" stroke="#ffffff" stroke-width="2" cx="186" cy="475" r="7.3473" /><circle style="position: absolute;" fill="none" stroke="#ffffff" stroke-width="2" cx="235" cy="445" r="22.0419" /><circle style="position: absolute;" fill="none" stroke="#ffffff" stroke-width="2" cx="224" cy="430" r="1" /><circle style="position: absolute;" fill="none" stroke="#ffffff" stroke-width="2" cx="220" cy="434" r="1" /><path fill="none" stroke="#ffffff" stroke-width="2" d="M 207.89 372.216 A 22.0419 22.0419 0 0 1 164.134 372.216" /><circle style="position: absolute;" fill="#eeeeee" stroke="#eeeeee" stroke-width="2" cx="186" cy="370" r="20.0419" /><circle style="position: absolute;" fill="none" stroke="#ffffff" stroke-width="2" cx="186" cy="392" r="7.3473" /><path fill="none" stroke="#ffffff" stroke-width="2" d="M 113.699 422.652 A 22.0419 22.0419 0 0 1 113.699 466.407" /><circle style="position: absolute;" fill="#eeeeee" stroke="#eeeeee" stroke-width="2" cx="111" cy="445" r="20.0419" /><circle style="position: absolute;" fill="none" stroke="#ffffff" stroke-width="2" cx="124" cy="457" r="1" /><circle style="position: absolute;" fill="none" stroke="#ffffff" stroke-width="2" cx="120" cy="460" r="1" /><circle style="position: absolute;" fill="none" stroke="#ffffff" stroke-width="2" cx="127" cy="452" r="1" /><circle style="position: absolute;" fill="none" stroke="#ffffff" stroke-width="2" cx="400" cy="375" r="360" /><circle style="position: absolute;" fill="none" stroke="#ffffff" stroke-width="2" cx="400" cy="375" r="364" /></svg>