<svg xmlns="http://www.w3.org/2000/svg" style="left: 0px; top: 0px; position: absolute;"><defs /><circle style="position: absolute;" fill="none" stroke="#144eee" stroke-width="2" cx="400" cy="525" r="150" /><path fill="none" stroke="#144eee" stroke-width="2" d="M 347.364 668.537 A 53.033 53.033 0 0 1 452.64 668.537" /><circle style="position: absolute;" fill="#eeeeee" stroke="#eeeeee" stroke-width="2" cx="400" cy="675" r="51.033" /><circle style="position: absolute;" fill="none" stroke="#144eee" stroke-width="2" cx="433" cy="639" r="1" /><circle style="position: absolute;" fill="none" stroke="#144eee" stroke-width="2" cx="443" cy="651" r="1" /><circle style="position: absolute;" fill="none" stroke="#144eee" stroke-width="2" cx="421" cy="631" r="1" /><circle style="position: absolute;" fill="none" stroke="#144eee" stroke-width="2" cx="400" cy="675" r="17.6777" /><path fill="none" stroke="#144eee" stroke-width="2" d="M 550.626 498.816 A 53.033 53.033 0 0 1 497.988 407.645" /><circle style="position: absolute;" fill="#eeeeee" stroke="#eeeeee" stroke-width="2" cx="530" cy="450" r="51.033" /><line stroke="#144eee" stroke-width="2" x1="478" y1="438" x2="470" y2="436" /><line stroke="#144eee" stroke-width="2" x1="484" y1="423" x2="477" y2="419" /><line stroke="#144eee" stroke-width="2" x1="477" y1="454" x2="469" y2="454" /><path fill="none" stroke="#144eee" stroke-width="2" d="M 302.013 407.646 A 53.033 53.033 0 0 1 249.375 498.818" /><circle style="position: absolute;" fill="#eeeeee" stroke="#eeeeee" stroke-width="2" cx="270" cy="450" r="51.033" /><circle style="position: absolute;" fill="none" stroke="#144eee" stroke-width="2" cx="400" cy="375" r="360" /><circle style="position: absolute;" fill="none" stroke="#144eee" stroke-width="2" cx="400" cy="375" r="364" /></svg>